<?xml version="1.0" standalone="no"?>
<!DOCTYPE svg PUBLIC "-//W3C//DTD SVG 20010904//EN"
 "http://www.w3.org/TR/2001/REC-SVG-20010904/DTD/svg10.dtd">
<svg version="1.0" xmlns="http://www.w3.org/2000/svg"
 width="1024.000000pt" height="1024.000000pt" viewBox="0 0 1024.000000 1024.000000"
 preserveAspectRatio="xMidYMid meet">

<g transform="translate(0.000000,1024.000000) scale(0.100000,-0.100000)"
fill="#000000" stroke="none">
<path d="M4980 8073 c-631 -37 -1221 -379 -1581 -918 -70 -104 -176 -316 -217
-430 -76 -217 -110 -398 -119 -630 -18 -495 136 -966 438 -1346 278 -349 655
-601 1074 -718 180 -51 264 -63 490 -68 163 -4 237 -1 328 11 445 62 825 249
1151 566 181 175 320 366 422 577 286 588 287 1241 3 1812 -328 661 -959 1084
-1699 1141 -130 10 -171 10 -290 3z m287 -173 c673 -60 1251 -448 1548 -1039
493 -985 16 -2199 -1025 -2609 -41 -16 -90 -33 -107 -37 l-33 -7 0 229 c0 162
-5 248 -15 298 -46 217 -210 371 -423 395 -144 16 -295 -13 -387 -75 -20 -14
-38 -25 -40 -25 -3 0 -5 17 -5 38 -1 118 -70 291 -157 394 -125 147 -255 208
-448 208 -268 0 -459 -130 -542 -366 -25 -73 -27 -91 -28 -241 0 -88 -3 -159
-7 -157 -18 11 -122 180 -171 279 -358 716 -217 1593 348 2161 397 399 945
602 1492 554z m-37 -2789 c0 -4 12 -7 28 -5 15 2 19 1 10 -2 -10 -3 -18 -14
-18 -24 0 -20 -26 -35 -35 -20 -4 6 1 10 9 10 20 0 20 7 2 26 -19 18 -40 18
-57 -2 -10 -12 -10 -17 0 -23 10 -6 9 -10 -4 -15 -15 -5 -15 -9 5 -41 12 -19
20 -35 18 -36 -2 0 -25 -3 -53 -6 -33 -3 -54 -11 -63 -24 -14 -20 -42 -26 -42
-8 0 5 -6 7 -12 3 -7 -4 -10 -4 -6 1 4 4 3 16 -2 25 -7 13 -5 22 6 31 12 10
15 10 12 0 -4 -19 29 -22 43 -4 10 11 10 16 0 22 -6 4 -11 12 -10 17 3 18 -1
34 -8 32 -5 -2 -10 2 -12 7 -3 6 4 12 13 13 11 2 16 0 12 -6 -3 -6 1 -18 10
-26 9 -9 11 -16 4 -16 -6 0 -8 -5 -4 -12 5 -7 11 -5 21 8 8 10 16 18 18 17 16
-5 43 11 38 24 -3 8 -12 12 -19 9 -8 -3 -14 0 -14 5 0 6 9 9 20 6 11 -3 22 -1
25 3 3 5 -26 7 -65 6 -38 -1 -70 2 -70 6 0 5 45 8 100 8 55 0 100 -4 100 -9z
m-215 -12 c4 -6 -2 -13 -14 -16 -11 -3 -18 -10 -14 -16 3 -6 1 -7 -6 -3 -6 4
-9 12 -6 17 4 5 1 9 -4 9 -6 0 -11 -2 -11 -4 0 -2 -3 -12 -6 -21 -4 -9 -3 -15
2 -14 23 4 33 -3 36 -23 5 -28 -19 -81 -32 -73 -6 4 -10 2 -10 -4 0 -5 6 -12
13 -14 6 -3 7 -6 1 -6 -5 -1 -19 6 -30 15 -10 8 -14 13 -7 10 15 -8 27 10 13
19 -5 3 -10 12 -10 18 0 8 3 8 8 2 4 -5 16 -11 27 -13 l20 -3 -20 16 c-20 16
-20 16 -1 31 11 8 17 14 13 14 -4 0 -9 -1 -10 -2 -2 -2 -11 3 -21 11 -12 10
-14 17 -5 27 6 8 8 14 3 15 -14 1 29 18 48 18 9 1 20 -4 23 -10z m295 -9 c0
-5 -2 -10 -4 -10 -3 0 -8 5 -11 10 -3 6 -1 10 4 10 6 0 11 -4 11 -10z m-397
-12 c-27 -13 -29 -24 -7 -32 14 -5 14 -9 3 -23 -12 -14 -11 -15 11 -8 23 7 23
7 7 -9 -9 -10 -17 -22 -17 -28 0 -6 -3 -8 -6 -5 -4 3 -14 2 -23 -3 -19 -10
-50 4 -38 17 5 4 11 2 15 -4 5 -8 13 -8 31 1 15 9 20 16 12 20 -6 4 -11 3 -11
-1 0 -13 -79 -10 -84 4 -3 7 8 22 24 33 l30 21 -10 -25 c-8 -23 -7 -26 11 -26
18 0 19 2 9 15 -8 9 -8 15 -2 15 6 0 12 -6 15 -12 2 -7 8 -10 13 -5 4 4 0 15
-9 24 -16 16 -16 18 5 30 13 7 28 12 33 12 6 0 0 -5 -12 -11z m200 -1 c3 -7
-3 -13 -14 -14 -15 -1 -16 1 -6 12 15 18 14 18 20 2z m262 -9 c6 -6 4 -7 -8
-2 -9 3 -23 1 -30 -4 -10 -8 -13 -6 -14 9 -2 16 2 19 20 13 12 -3 27 -11 32
-16z m85 -54 c0 -2 -7 0 -17 3 -12 5 -14 3 -8 -7 6 -9 4 -11 -4 -6 -7 5 -10
10 -7 13 3 3 -5 14 -17 24 -19 17 -16 16 16 -2 20 -11 37 -23 37 -25z m-414 3
c5 -9 4 -9 -6 0 -7 6 -18 9 -25 7 -6 -3 -12 2 -12 10 0 11 5 13 18 5 10 -5 21
-15 25 -22z m144 23 c0 -5 -5 -10 -11 -10 -5 0 -7 5 -4 10 3 6 8 10 11 10 2 0
4 -4 4 -10z m104 -10 c4 -5 0 -7 -10 -7 -14 2 -18 -4 -16 -20 2 -13 -2 -23 -8
-23 -6 0 -8 12 -5 31 4 19 2 28 -5 24 -5 -3 -10 -1 -10 5 0 12 38 5 54 -10z
m70 -22 c-6 -9 -54 12 -54 23 0 5 7 6 15 3 9 -4 15 -1 15 7 0 7 6 5 14 -6 8
-11 12 -23 10 -27z m-124 -9 c0 -10 -4 -21 -10 -24 -5 -3 -7 0 -4 8 3 8 0 18
-7 23 -8 5 -10 3 -4 -6 5 -8 3 -11 -5 -8 -24 8 -21 24 5 24 17 0 25 -5 25 -17z
m158 -4 c-3 -3 -9 2 -12 12 -6 14 -5 15 5 6 7 -7 10 -15 7 -18z m-91 9 c-3 -3
-12 -4 -19 -1 -8 3 -5 6 6 6 11 1 17 -2 13 -5z m-12 -24 c-3 -5 -1 -10 5 -10
6 0 8 -5 4 -12 -6 -9 -9 -9 -12 1 -3 9 -9 7 -24 -6 -11 -10 -23 -17 -26 -15
-4 2 -8 -1 -10 -7 -3 -8 4 -8 23 -1 37 14 45 13 44 -7 0 -11 -3 -13 -6 -5 -2
6 -9 12 -14 12 -6 0 -8 -4 -4 -9 6 -11 -41 -8 -51 2 -9 9 16 38 27 32 5 -3 14
3 21 15 7 11 16 20 21 20 4 0 5 -4 2 -10z m56 -18 c-8 -16 -7 -21 6 -26 9 -4
14 -9 11 -11 -11 -11 -36 8 -40 30 -4 16 -1 22 9 18 7 -3 13 1 13 8 0 7 3 10
6 7 3 -4 1 -15 -5 -26z m-534 11 c-14 -3 -17 -11 -13 -26 5 -21 5 -21 -9 -3
-16 21 -5 37 25 35 10 -1 9 -3 -3 -6z m378 -13 c-10 -11 -22 -17 -27 -14 -5 4
1 12 14 19 32 18 34 18 13 -5z m327 -28 c-6 -14 -7 -13 -10 6 -2 12 -7 20 -11
18 -4 -3 -8 1 -8 9 0 13 3 13 18 -1 11 -10 15 -22 11 -32z m-112 3 c0 -5 -5
-3 -10 5 -5 8 -10 20 -10 25 0 6 5 3 10 -5 5 -8 10 -19 10 -25z m-656 10 c-4
-8 -11 -12 -16 -9 -6 4 -5 10 3 15 19 12 19 11 13 -6z m108 0 c16 -21 7 -25
-22 -10 -16 9 -30 17 -30 19 0 7 46 0 52 -9z m38 -4 c0 -4 -5 -12 -12 -19 -9
-9 -9 -12 0 -12 6 0 16 8 22 18 11 16 11 15 6 -2 -4 -11 1 -27 11 -39 17 -19
17 -19 0 -16 -10 2 -17 8 -17 14 1 5 -6 12 -16 15 -9 4 -18 18 -20 33 -2 19 1
24 12 20 8 -3 14 -8 14 -12z m239 2 c-12 -15 -12 -16 4 -10 10 4 16 3 12 -2
-3 -5 8 -20 24 -34 27 -22 28 -26 13 -41 -10 -9 -12 -16 -5 -16 7 0 14 4 17 9
3 5 15 11 27 14 11 3 18 3 15 0 -3 -4 -1 -12 5 -20 9 -9 8 -13 0 -13 -6 0 -11
5 -11 10 0 6 -5 10 -11 10 -5 0 -7 -4 -4 -10 3 -5 0 -7 -7 -5 -8 3 -22 -1 -32
-8 -16 -12 -17 -15 -3 -28 13 -14 13 -17 -7 -29 -23 -16 -27 -17 -57 -19 -12
-1 -17 -5 -13 -13 4 -6 3 -8 -3 -5 -6 4 -8 18 -5 32 3 19 8 23 15 16 6 -6 22
-11 35 -11 20 0 23 4 19 33 -3 22 -9 32 -20 31 -9 -1 -14 2 -11 7 3 5 -4 9
-15 9 -23 0 -36 -16 -21 -25 5 -3 10 0 10 7 0 7 6 4 12 -7 22 -36 17 -47 -9
-21 -14 14 -31 26 -37 26 -6 0 2 9 19 20 19 12 33 16 39 10 12 -12 43 -13 50
-1 9 13 -20 45 -33 37 -9 -6 -9 -12 0 -24 7 -10 -1 -3 -18 13 -20 20 -26 33
-19 37 6 4 7 8 2 8 -6 0 -1 7 10 15 25 19 29 19 13 -2z m74 2 c-3 -9 -8 -14
-10 -11 -3 3 -2 9 2 15 9 16 15 13 8 -4z m-399 -23 c25 3 76 -33 76 -53 -1 -9
-4 -8 -11 4 -5 9 -17 17 -24 17 -8 0 -14 6 -12 12 1 9 -8 12 -27 9 -27 -3 -46
11 -46 34 1 6 5 2 11 -8 6 -11 20 -17 33 -15z m277 14 c-6 -7 -8 -21 -5 -30 5
-13 2 -17 -12 -14 -14 2 -18 -2 -16 -17 2 -16 1 -17 -7 -5 -7 10 -11 11 -11 3
0 -7 -7 -10 -15 -6 -9 3 -14 8 -11 10 2 3 6 3 9 1 9 -7 36 25 30 36 -3 6 -3 8
2 4 5 -5 14 1 22 12 8 11 17 20 20 20 3 0 0 -6 -6 -14z m-71 -11 c0 -2 -9 -3
-19 -2 -11 0 -18 5 -15 9 4 6 34 0 34 -7z m-296 -11 c3 -8 2 -12 -4 -9 -6 3
-10 10 -10 16 0 14 7 11 14 -7z m240 -26 c7 -5 8 -8 1 -8 -16 0 -35 22 -35 40
1 11 4 10 12 -5 6 -11 16 -23 22 -27z m536 23 c7 -14 7 -22 0 -26 -6 -4 -10
-3 -9 2 4 21 -2 34 -13 27 -7 -4 -8 -3 -4 4 10 16 14 15 26 -7z m-509 -54 c-5
-12 -15 -22 -22 -22 -8 0 -17 -7 -21 -15 -5 -12 -7 -12 -7 3 -1 9 -5 17 -11
17 -5 0 -10 4 -10 9 0 5 10 7 22 3 16 -4 19 -2 13 8 -5 9 -4 11 4 6 6 -4 9
-12 6 -17 -4 -5 -2 -9 3 -9 17 0 20 38 5 62 l-15 23 21 -23 c15 -17 18 -29 12
-45z m223 55 c3 -5 -1 -9 -9 -9 -8 0 -12 4 -9 9 3 4 7 8 9 8 2 0 6 -4 9 -8z
m146 -9 c0 -3 -6 -3 -14 0 -21 8 -27 -18 -9 -42 8 -12 12 -25 9 -28 -3 -4 -6
-1 -6 5 0 7 -5 12 -11 12 -5 0 -7 -5 -3 -12 4 -6 3 -8 -3 -5 -12 8 -12 56 0
74 7 11 37 8 37 -4z m66 -28 c-10 -8 -24 -12 -29 -8 -6 3 0 11 14 16 14 5 19
11 12 14 -7 3 -13 10 -13 16 0 6 8 3 18 -6 16 -17 16 -19 -2 -32z m-666 31 c0
-3 -4 -8 -10 -11 -5 -3 -10 -1 -10 4 0 6 5 11 10 11 6 0 10 -2 10 -4z m794 -5
c4 -5 -3 -7 -14 -4 -23 6 -26 13 -6 13 8 0 17 -4 20 -9z m-729 -21 c-3 -5 0
-10 5 -12 6 -2 -3 -11 -19 -21 -29 -17 -29 -17 -23 5 3 12 7 17 10 10 2 -7 8
-10 13 -6 5 3 5 13 -1 24 -8 16 -8 18 5 14 8 -3 13 -10 10 -14z m448 5 c-3 -9
2 -22 13 -31 17 -13 17 -13 1 -8 -10 4 -22 14 -27 24 -9 17 -7 21 17 29 1 1 0
-6 -4 -14z m-1628 -25 c10 -11 16 -20 13 -20 -3 0 -13 9 -23 20 -10 11 -16 20
-13 20 3 0 13 -9 23 -20z m1135 5 c0 -8 -7 -15 -15 -15 -13 0 -14 3 -3 15 16
18 18 18 18 0z m329 12 c-2 -2 -11 -8 -20 -15 -12 -9 -16 -9 -16 1 0 7 9 14
20 14 11 1 18 1 16 0z m201 -7 c0 -5 -7 -7 -15 -4 -8 4 -15 8 -15 10 0 2 7 4
15 4 8 0 15 -4 15 -10z m147 -1 c-18 -10 -18 -11 0 -25 17 -14 16 -14 -5 -4
-19 9 -21 14 -11 26 6 8 17 14 23 14 6 0 3 -5 -7 -11z m-586 -16 c13 -16 12
-17 -3 -4 -10 7 -18 15 -18 17 0 8 8 3 21 -13z m620 -6 c-10 -9 -11 -8 -5 6 3
10 9 15 12 12 3 -3 0 -11 -7 -18z m-804 -6 c-1 -11 -6 -17 -14 -14 -10 4 -11
9 -2 19 15 19 18 18 16 -5z m50 -3 c-3 -8 -6 -5 -6 6 -1 11 2 17 5 13 3 -3 4
-12 1 -19z m164 -1 c-10 -9 -11 -8 -5 6 3 10 9 15 12 12 3 -3 0 -11 -7 -18z
m139 1 c0 7 3 12 8 12 4 0 7 -16 8 -34 0 -19 -4 -32 -8 -29 -5 3 -7 12 -4 20
4 9 1 13 -6 10 -7 -2 -12 -13 -12 -25 1 -12 -2 -19 -7 -17 -4 3 -14 -4 -22
-15 -7 -11 -17 -17 -20 -13 -4 3 3 14 15 24 11 11 17 19 13 19 -5 0 -4 5 3 12
7 7 12 21 12 32 0 20 0 20 -16 0 -14 -18 -14 -18 -3 5 11 24 12 24 25 6 8 -10
14 -13 14 -7z m-324 -13 c1 -8 -2 -13 -7 -9 -5 3 -9 12 -9 21 0 19 13 9 16
-12z m114 10 c-7 -8 -17 -15 -23 -15 -6 0 -2 7 9 15 25 19 30 19 14 0z m542
-7 c-7 -7 -12 -8 -12 -2 0 14 12 26 19 19 2 -3 -1 -11 -7 -17z m48 2 c10 0 21
-4 24 -9 3 -4 -4 -8 -17 -7 -15 1 -21 -4 -19 -14 2 -8 0 -12 -4 -8 -4 5 -8 20
-10 35 -1 16 0 22 3 16 2 -7 13 -13 23 -13z m102 -4 c7 4 8 2 4 -5 -9 -13 -26
-5 -25 12 0 9 2 8 6 -1 2 -6 10 -9 15 -6z m-637 -11 c6 0 17 4 25 10 13 8 13
7 1 -8 -7 -9 -16 -15 -20 -13 -8 5 -31 -20 -25 -27 3 -3 1 -7 -3 -10 -5 -3 -8
8 -7 26 2 41 3 44 12 32 4 -6 12 -10 17 -10z m427 1 c5 3 4 -3 -3 -14 -16 -26
-29 -19 -21 10 3 12 7 17 10 10 2 -7 8 -9 14 -6z m-555 -17 c6 -21 6 -21 20 2
10 17 12 18 7 4 -3 -11 -7 -25 -7 -31 0 -6 -6 -11 -13 -11 -7 0 -11 4 -9 8 3
3 -2 12 -10 19 -18 15 -20 30 -4 30 6 0 13 -10 16 -21z m458 3 c-3 -3 -11 0
-18 7 -9 10 -8 11 6 5 10 -3 15 -9 12 -12z m284 4 c9 -11 9 -16 0 -22 -7 -4
-9 -3 -5 4 3 6 -2 15 -11 21 -10 6 -13 11 -7 11 6 0 17 -6 23 -14z m100 -4 c7
-13 6 -19 -2 -19 -7 0 -13 9 -13 19 0 10 1 18 3 18 1 0 7 -8 12 -18z m-946 -7
c-3 -9 -8 -14 -10 -11 -3 3 -2 9 2 15 9 16 15 13 8 -4z m185 -10 c-3 -3 -9 2
-12 12 -6 14 -5 15 5 6 7 -7 10 -15 7 -18z m401 9 c-11 -14 -10 -18 6 -30 13
-9 22 -11 29 -4 5 5 15 10 21 10 5 0 3 -5 -5 -10 -11 -7 -12 -10 -2 -10 10 0
10 -4 -2 -16 -9 -8 -16 -25 -17 -37 0 -21 -1 -21 -8 -2 -5 11 -5 21 0 23 10 4
0 32 -12 32 -5 0 -8 -6 -6 -12 1 -8 -9 -13 -28 -13 -16 0 -29 -5 -28 -11 1 -7
-12 -10 -33 -8 -34 2 -62 14 -35 14 7 0 9 6 6 13 -4 6 0 4 8 -6 16 -19 49 -13
41 7 -3 7 3 19 13 26 15 12 16 12 6 0 -17 -19 -16 -31 2 -24 8 3 17 16 21 27
7 23 23 47 31 47 3 0 -1 -7 -8 -16z m-287 -1 c-15 -6 -6 -23 11 -19 7 1 9 1 5
-1 -5 -3 -8 -12 -8 -21 0 -12 -4 -9 -14 8 -14 27 -12 40 7 39 9 0 8 -2 -1 -6z
m132 -33 c-5 -5 -10 3 -11 18 -1 22 0 24 9 8 6 -10 6 -22 2 -26z m183 25 c0
-8 -4 -12 -9 -9 -5 3 -6 10 -3 15 9 13 12 11 12 -6z m113 5 c0 -5 -5 -10 -11
-10 -5 0 -7 5 -4 10 3 6 8 10 11 10 2 0 4 -4 4 -10z m48 -15 c-3 -13 0 -26 6
-29 6 -2 3 -5 -6 -5 -10 -1 -18 4 -18 10 0 5 -4 8 -9 4 -5 -3 -12 -1 -16 4 -3
6 3 8 15 6 14 -3 20 1 20 16 0 10 3 19 6 19 4 0 4 -11 2 -25z m111 3 c12 -15
11 -18 -3 -18 -10 0 -16 8 -16 22 0 12 1 19 3 17 1 -2 9 -12 16 -21z m-804 -8
c-3 -5 3 -13 12 -19 10 -6 14 -11 9 -11 -6 0 -1 -7 10 -15 19 -15 19 -15 0 -8
-16 5 -18 3 -13 -11 9 -23 -10 -11 -24 16 -8 15 -8 19 0 14 20 -13 11 13 -10
27 -15 11 -17 16 -7 20 17 6 30 -2 23 -13z m739 5 c3 -9 0 -15 -9 -15 -9 0
-12 6 -9 15 4 8 7 15 9 15 2 0 5 -7 9 -15z m-558 -62 c-2 -3 -7 5 -11 16 -4
12 -12 18 -21 14 -7 -3 -14 0 -14 7 0 6 5 8 10 5 6 -3 10 2 10 12 1 11 7 4 16
-16 8 -19 12 -36 10 -38z m-221 37 c7 0 15 -9 18 -21 3 -12 3 -18 0 -15 -4 3
-13 0 -21 -7 -13 -10 -14 -9 -4 10 9 17 9 22 -3 27 -8 3 -15 11 -14 18 0 10 2
10 6 1 2 -7 11 -13 18 -13z m695 -14 c0 -11 -30 1 -39 16 -11 18 -11 18 14 2
14 -9 25 -17 25 -18z m210 24 c0 -5 -2 -10 -4 -10 -3 0 -8 5 -11 10 -3 6 -1
10 4 10 6 0 11 -4 11 -10z m-790 -8 c0 -5 -7 -9 -15 -9 -8 0 -12 4 -9 9 3 4 9
8 15 8 5 0 9 -4 9 -8z m201 -15 c-10 -9 -11 -8 -5 6 3 10 9 15 12 12 3 -3 0
-11 -7 -18z m42 16 c-7 -2 -13 -9 -13 -14 0 -6 5 -7 12 -3 7 4 8 3 4 -4 -4 -7
-2 -12 3 -12 6 0 11 6 12 13 0 7 3 7 6 -3 4 -8 16 -22 27 -32 14 -12 6 -10
-25 6 -36 19 -50 22 -59 13 -7 -7 -5 0 5 16 9 15 22 27 29 26 7 0 6 -2 -1 -6z
m-384 -31 c0 -14 -2 -13 -9 3 -5 11 -9 14 -9 8 -1 -7 -6 -13 -12 -13 -8 0 -8
5 1 15 15 18 30 11 29 -13z m183 5 c-2 -10 -5 -16 -6 -15 -1 2 -7 10 -13 18
-10 13 -8 16 6 16 13 0 17 -6 13 -19z m491 17 c11 -11 -3 -24 -18 -18 -8 4
-12 10 -9 15 6 11 18 12 27 3z m146 -42 c-2 -26 -2 -26 -6 -2 -3 13 -12 30
-21 38 -15 11 -14 12 6 2 15 -7 22 -19 21 -38z m81 38 c0 -5 -5 -12 -12 -16
-6 -4 -8 -3 -4 4 4 7 -1 10 -14 9 -10 -1 -22 -8 -25 -15 -3 -9 0 -12 8 -9 8 3
14 -1 14 -9 0 -7 -7 -16 -14 -18 -8 -3 -11 -2 -8 3 3 5 1 12 -5 16 -6 4 -7 11
-4 17 4 6 2 13 -5 17 -6 4 7 7 29 8 22 0 40 -3 40 -7z m-1765 -60 c33 -33 57
-60 54 -60 -2 0 -31 27 -64 60 -33 33 -57 60 -54 60 2 0 31 -27 64 -60z m1165
29 c-14 -4 -19 -7 -11 -8 8 -1 12 -4 8 -7 -10 -10 -26 6 -21 20 3 9 14 12 27
8 21 -6 21 -6 -3 -13z m465 9 c3 -3 -6 -13 -19 -22 -16 -10 -27 -12 -31 -6 -4
6 -1 9 7 8 7 -2 12 4 12 13 -1 16 18 20 31 7z m-791 -20 c-3 -5 -12 -4 -20 3
-19 16 -18 18 6 12 11 -3 17 -9 14 -15z m697 -11 c-10 -9 -11 -8 -5 6 3 10 9
15 12 12 3 -3 0 -11 -7 -18z m239 14 c0 -6 -5 -13 -12 -17 -6 -4 -8 -3 -4 4 3
5 0 13 -6 15 -8 3 -6 6 5 6 9 1 17 -3 17 -8z m-750 -8 c0 -5 -4 -14 -9 -21 -7
-11 -9 -11 -14 1 -3 8 -3 18 0 21 9 8 23 7 23 -1z m193 -30 c-9 -7 -19 -10
-22 -7 -3 4 0 9 7 11 6 3 12 12 12 21 0 15 2 15 10 2 7 -11 5 -19 -7 -27z
m224 15 c-3 -8 -6 -5 -6 6 -1 11 2 17 5 13 3 -3 4 -12 1 -19z m120 0 c-3 -8
-6 -5 -6 6 -1 11 2 17 5 13 3 -3 4 -12 1 -19z m-685 5 c-6 -2 -10 -8 -7 -13 3
-4 -3 -14 -12 -21 -15 -12 -16 -12 -8 1 6 8 10 18 11 23 1 4 2 9 3 12 0 3 7 5
14 4 9 0 9 -2 -1 -6z m325 1 c-3 -3 -12 -4 -19 -1 -8 3 -5 6 6 6 11 1 17 -2
13 -5z m223 0 c0 -8 -19 -13 -24 -6 -3 5 1 9 9 9 8 0 15 -2 15 -3z m204 -2 c3
-5 -1 -9 -9 -9 -8 0 -12 4 -9 9 3 4 7 8 9 8 2 0 6 -4 9 -8z m51 -21 c-6 -5
-25 10 -25 20 0 5 6 4 14 -3 8 -7 12 -15 11 -17z m142 -3 c-3 -7 -5 -2 -5 12
0 14 2 19 5 13 2 -7 2 -19 0 -25z m-1016 -1 c-10 -9 -11 -8 -5 6 3 10 9 15 12
12 3 -3 0 -11 -7 -18z m92 8 c-3 -9 -8 -14 -10 -11 -3 3 -2 9 2 15 9 16 15 13
8 -4z m44 -15 c-2 -23 -10 -17 -12 10 -1 10 2 17 6 14 4 -2 7 -13 6 -24z m48
21 c3 -5 0 -13 -6 -17 -8 -5 -9 -3 -4 6 6 10 4 12 -8 7 -10 -3 -17 -2 -17 3 0
13 27 13 35 1z m313 -20 c-7 -2 -17 -9 -21 -15 -5 -6 -5 0 -2 13 5 17 4 22 -5
16 -9 -5 -11 -4 -6 3 5 9 12 8 27 -1 13 -8 15 -13 7 -16z m-171 -6 c1 -11 -1
-14 -4 -7 -3 6 -9 12 -14 12 -6 0 -7 -4 -4 -10 3 -5 4 -10 1 -10 -3 0 -10 8
-15 18 -7 14 -5 17 13 17 15 0 22 -6 23 -20z m40 4 c-1 -12 4 -24 12 -27 8 -2
11 0 7 6 -3 6 1 9 11 8 10 -2 21 2 25 8 5 8 8 7 8 -2 0 -7 4 -11 9 -7 5 3 13
0 17 -6 5 -9 0 -10 -14 -7 -22 6 -30 -6 -13 -16 5 -3 11 -17 13 -31 3 -13 1
-22 -3 -19 -5 3 -9 14 -9 24 0 24 -16 34 -24 15 -3 -8 -16 -14 -28 -14 l-23 2
23 4 c12 2 22 11 22 20 0 13 -3 13 -15 3 -11 -9 -15 -9 -15 -1 0 7 -5 9 -12 5
-6 -4 -8 -3 -4 4 3 6 2 13 -4 17 -6 4 -5 11 3 20 16 19 17 19 14 -6z m328 1
c-3 -5 -14 -6 -25 -3 -11 3 -18 9 -15 13 3 5 14 6 25 3 11 -3 18 -9 15 -13z
m45 16 c0 -3 -4 -8 -10 -11 -5 -3 -10 -1 -10 4 0 6 5 11 10 11 6 0 10 -2 10
-4z m170 -6 c0 -5 -2 -10 -4 -10 -3 0 -8 5 -11 10 -3 6 -1 10 4 10 6 0 11 -4
11 -10z m40 6 c0 -2 -8 -10 -17 -17 -16 -13 -17 -12 -4 4 13 16 21 21 21 13z
m-840 -26 c0 -13 -5 -18 -15 -14 -11 5 -12 9 -2 20 16 18 17 17 17 -6z m147 7
c-3 -7 4 -24 14 -38 22 -29 24 -40 6 -33 -8 3 -20 -2 -27 -11 -12 -15 -9 -16
27 -12 28 2 40 0 40 -9 0 -9 -6 -10 -17 -4 -9 5 -22 5 -31 -1 -12 -8 -12 -10
1 -19 11 -7 11 -10 2 -10 -7 0 -15 7 -18 15 -4 8 -10 15 -16 15 -5 0 -6 -4 -3
-10 4 -6 -1 -7 -11 -3 -11 4 -13 8 -6 11 7 2 12 10 12 17 0 8 7 18 15 23 10 5
13 15 9 25 -3 9 -9 15 -13 13 -4 -3 -7 4 -7 14 0 10 4 16 8 14 4 -3 8 0 8 5 0
6 3 11 6 11 3 0 4 -6 1 -13z m589 4 c-4 -5 0 -11 6 -14 7 -2 1 -4 -15 -3 -24
1 -25 2 -10 14 20 14 26 15 19 3z m-212 -16 c-4 -8 -2 -15 4 -15 6 0 12 6 15
13 4 9 7 9 18 0 8 -9 16 -9 25 -2 15 13 61 2 61 -15 0 -6 -9 -13 -20 -13 -12
-1 -17 3 -13 13 7 19 -18 18 -35 -2 -7 -8 -21 -13 -31 -11 -10 3 -16 1 -12 -4
10 -16 -9 -9 -21 8 -13 18 -10 43 6 43 4 0 6 -7 3 -15z m150 0 c-4 -8 -8 -15
-10 -15 -2 0 -4 7 -4 15 0 8 4 15 10 15 5 0 7 -7 4 -15z m-769 -4 c-3 -6 2
-14 11 -19 15 -8 14 -10 -3 -14 -15 -4 -19 -1 -17 16 3 26 3 26 10 26 3 0 3
-4 -1 -9z m580 -9 c0 -7 7 -17 15 -23 12 -9 12 -10 -3 -5 -10 3 -25 6 -33 6
-8 0 -14 5 -14 11 0 5 5 7 10 4 6 -3 10 -1 10 5 0 6 -11 8 -27 4 -22 -4 -25
-3 -13 5 19 14 55 10 55 -7z m308 2 c7 1 9 1 4 -1 -4 -3 -4 -10 -1 -15 4 -6 2
-8 -4 -4 -5 3 -12 1 -14 -6 -5 -14 -28 -1 -27 15 0 9 2 8 6 -1 6 -15 23 -6 19
11 -1 7 -1 9 1 5 2 -4 10 -6 16 -4z m81 -9 c-9 -14 -19 -25 -22 -25 -3 0 -2 3
1 7 4 3 1 13 -6 21 -10 13 -9 15 6 9 9 -3 17 -2 17 3 0 6 5 10 10 10 6 0 3
-11 -6 -25z m-914 0 c0 -2 -9 -19 -20 -37 -11 -18 -20 -28 -20 -23 0 6 7 20
15 31 8 12 11 24 8 28 -3 3 -1 6 5 6 7 0 12 -2 12 -5z m755 -4 c-3 -5 3 -12
12 -14 14 -4 13 -5 -4 -6 -14 -1 -23 5 -23 14 0 8 5 15 11 15 5 0 8 -4 4 -9z
m202 -24 c2 -17 1 -19 -7 -7 -11 17 -14 47 -3 36 4 -3 8 -17 10 -29z m-1732 3
c10 -11 16 -20 13 -20 -3 0 -13 9 -23 20 -10 11 -16 20 -13 20 3 0 13 -9 23
-20z m844 6 c16 -19 -3 -30 -28 -16 -24 12 -39 -5 -15 -18 15 -8 15 -10 0 -15
-10 -4 -14 -3 -11 2 3 5 1 12 -5 16 -5 3 -10 -2 -10 -11 0 -10 -3 -14 -7 -11
-11 11 20 58 34 53 7 -3 13 -1 13 4 0 15 16 12 29 -4z m95 5 c17 -7 18 -8 3
-14 -9 -3 -19 -2 -23 4 -3 6 -12 8 -20 5 -8 -3 -14 -1 -14 4 0 12 27 12 54 1z
m223 -13 c-3 -8 -6 -5 -6 6 -1 11 2 17 5 13 3 -3 4 -12 1 -19z m81 15 c-10 -2
-18 -12 -18 -21 0 -15 2 -15 11 -2 8 12 9 11 7 -5 -2 -11 2 -19 8 -18 7 1 11
-10 10 -26 0 -20 -5 -27 -14 -23 -9 3 -10 7 -3 11 11 7 5 19 -23 41 -18 13
-19 13 -14 -1 3 -9 1 -16 -5 -16 -7 0 -25 -3 -42 -7 -28 -6 -27 -5 5 8 19 8
31 15 25 16 -5 0 -2 5 8 11 12 7 15 14 8 22 -7 9 -1 12 22 13 18 1 24 -1 15
-3z m406 -1 c-6 -4 -10 -21 -8 -39 2 -26 0 -30 -11 -20 -7 7 -10 14 -6 17 4 3
6 12 6 20 -2 21 4 30 18 30 8 0 9 -3 1 -8z m-748 -21 c10 8 14 8 14 0 0 -6 -6
-11 -12 -11 -10 0 -10 -2 0 -9 11 -7 10 -9 -3 -14 -9 -4 -14 -3 -11 2 3 5 -1
14 -9 21 -8 7 -15 18 -15 24 0 6 5 3 11 -7 8 -14 14 -16 25 -6z m289 9 c3 -5
1 -10 -4 -10 -6 0 -11 5 -11 10 0 6 2 10 4 10 3 0 8 -4 11 -10z m313 -2 c-2
-7 2 -12 9 -13 6 0 15 -4 20 -9 5 -5 3 -6 -5 -2 -7 4 -15 1 -18 -8 -3 -9 -11
-16 -16 -16 -6 0 -6 6 1 14 8 10 9 16 1 21 -13 8 -13 25 0 25 6 0 9 -5 8 -12z
m-138 -32 c-5 -15 -8 -32 -4 -37 3 -5 2 -9 -3 -10 -45 -4 -55 -7 -65 -17 -8
-8 -8 -15 0 -25 13 -16 12 -67 -1 -67 -5 0 -6 9 -2 20 14 46 -38 77 -57 34 -6
-13 -14 -24 -18 -24 -4 0 -10 -9 -13 -20 -5 -21 8 -29 15 -8 2 6 12 12 22 14
10 1 16 0 13 -3 -3 -2 -8 -4 -12 -3 -8 2 -34 -31 -35 -44 0 -5 7 -3 15 4 13
10 18 11 28 1 9 -10 8 -11 -4 -6 -10 4 -20 2 -24 -4 -3 -6 -1 -11 6 -11 7 0 9
-3 6 -6 -4 -4 -14 -1 -24 7 -14 11 -15 11 -9 0 5 -8 4 -16 -3 -21 -9 -5 -8
-11 4 -24 9 -9 12 -16 6 -16 -19 0 -33 38 -21 60 8 14 8 26 -1 41 -8 15 -8 19
0 15 6 -4 11 0 11 8 0 9 0 18 0 21 0 3 -3 4 -7 3 -5 -2 -7 -6 -5 -10 1 -5 -2
-8 -8 -8 -15 0 -12 16 5 30 8 7 15 20 15 29 0 14 -2 14 -11 1 -8 -12 -10 -12
-7 -1 2 8 13 20 24 28 18 11 21 11 21 -1 0 -8 -5 -12 -11 -10 -6 2 -11 -7 -11
-21 0 -14 6 -25 14 -25 7 0 11 6 7 15 -3 8 -2 14 2 14 4 -1 10 0 15 1 12 4 26
7 38 9 5 0 7 6 3 13 -4 7 -3 8 4 4 7 -4 12 -2 12 4 0 6 5 8 11 4 8 -4 9 1 4
16 -5 15 -4 20 4 16 6 -4 11 0 11 8 0 9 5 16 10 16 7 0 7 -7 -1 -21 -6 -13 -7
-25 -2 -30 6 -6 14 6 22 32 7 22 14 39 17 36 2 -2 0 -16 -6 -31z m89 11 c0 -9
-2 -9 -5 0 -3 7 -13 9 -22 6 -14 -4 -14 -3 -2 5 16 12 30 7 29 -11z m152 -5
c-6 -11 -8 -21 -6 -24 2 -2 -6 -5 -18 -6 -17 -1 -23 4 -25 23 -1 14 3 25 8 25
6 0 9 -3 9 -7 -3 -21 2 -33 12 -28 6 4 8 14 5 22 -3 8 -1 11 4 8 6 -3 10 -1
10 6 0 7 3 10 6 7 3 -4 1 -15 -5 -26z m-540 8 c5 0 9 -8 8 -17 0 -11 -3 -13
-6 -5 -2 6 -8 10 -13 7 -4 -3 -14 3 -21 12 -12 15 -12 16 4 10 10 -4 23 -7 28
-7z m223 -16 c3 -8 2 -12 -4 -9 -6 3 -10 10 -10 16 0 14 7 11 14 -7z m-443
-11 c12 -14 12 -15 0 -9 -10 7 -12 3 -6 -14 6 -19 4 -21 -15 -15 -16 5 -26 1
-36 -14 -14 -20 -50 -19 -38 1 4 6 9 6 14 -2 6 -9 11 -6 20 11 10 19 38 55 46
58 1 1 8 -7 15 -16z m276 0 c4 -10 11 -21 17 -25 7 -5 6 -8 -2 -8 -8 0 -16 9
-19 20 -6 21 -23 28 -23 8 0 -6 -3 -9 -6 -5 -8 7 4 27 17 27 5 0 13 -8 16 -17z
m273 13 c0 -3 -4 -8 -10 -11 -5 -3 -10 -1 -10 4 0 6 5 11 10 11 6 0 10 -2 10
-4z m305 -5 c28 11 35 11 35 -2 0 -5 -4 -7 -10 -4 -5 3 -10 -1 -10 -10 0 -10
5 -14 13 -9 10 6 10 4 0 -7 -14 -14 -18 -33 -5 -25 4 2 8 -4 9 -14 1 -12 -3
-17 -11 -14 -19 7 -26 -30 -11 -58 7 -15 9 -33 4 -46 -12 -31 -18 -27 -13 8 4
25 2 29 -11 23 -10 -3 -21 0 -26 8 -6 10 -9 7 -9 -13 0 -15 -4 -29 -8 -32 -10
-6 -9 35 1 52 5 6 4 12 -2 12 -5 0 -12 -9 -16 -19 -3 -11 -13 -22 -22 -25 -14
-6 -14 -8 2 -26 20 -22 11 -48 -11 -29 -19 16 -11 50 20 84 25 27 27 28 46 10
11 -10 23 -15 28 -10 4 4 1 10 -6 12 -9 4 -10 9 -3 17 8 10 4 12 -19 11 -28
-2 -29 0 -15 15 8 9 15 22 15 28 0 7 5 12 10 12 7 0 7 -7 0 -21 -14 -24 -6
-36 13 -21 16 13 23 87 7 77 -6 -3 -7 -11 -4 -17 5 -7 0 -9 -14 -6 -12 4 -22
2 -22 -4 0 -5 -5 -6 -10 -3 -6 4 -4 12 5 21 8 9 12 21 8 27 -5 9 -3 9 8 1 8
-7 22 -8 34 -3z m-251 -15 c-4 -11 1 -14 20 -12 14 2 23 -1 20 -5 -3 -5 -1 -9
5 -9 5 0 11 5 13 12 5 14 38 20 38 6 0 -6 -6 -8 -14 -5 -8 3 -17 0 -20 -8 -3
-8 0 -16 7 -18 7 -2 9 -8 5 -12 -4 -4 -14 -2 -22 4 -8 7 -20 10 -26 6 -6 -4
-9 -1 -8 6 2 7 -3 14 -9 15 -7 1 -18 2 -24 3 -5 0 -7 6 -4 11 9 14 -8 12 -25
-2 -12 -11 -12 -10 -1 5 16 21 53 24 45 3z m-385 -22 c-6 -8 -9 -21 -5 -29 3
-10 2 -14 -5 -9 -6 3 -8 17 -4 31 4 18 2 23 -6 17 -8 -4 -9 -3 -5 4 4 6 13 9
22 5 11 -4 12 -9 3 -19z m-179 4 c0 -9 4 -8 10 2 5 8 10 13 11 10 0 -3 2 -12
4 -21 2 -11 -3 -16 -14 -14 -9 1 -21 -1 -27 -6 -7 -5 -11 -3 -11 6 0 8 5 11
10 8 6 -4 8 0 4 10 -3 10 -2 17 3 17 6 0 10 -6 10 -12z m737 -3 c0 -8 -4 -12
-9 -9 -5 3 -6 10 -3 15 9 13 12 11 12 -6z m-43 -27 c5 -30 -17 -58 -30 -37 -4
7 -3 9 4 5 6 -3 13 -2 17 4 3 5 0 10 -7 10 -9 0 -9 3 2 10 13 8 12 10 -2 10
-10 0 -18 5 -18 11 0 5 5 7 10 4 6 -3 10 -1 10 6 0 20 8 6 14 -23z m-857 -26
c-10 -22 -12 -22 -18 -5 -4 11 -1 19 7 21 7 2 10 11 8 20 -5 14 -4 14 4 3 7
-10 7 -22 -1 -39z m246 17 c3 -10 1 -19 -4 -19 -5 0 -9 7 -9 15 0 8 -7 15 -16
15 -8 0 -13 4 -9 10 9 14 32 1 38 -21z m461 19 c-5 -8 -2 -9 9 -5 10 3 17 2
17 -3 0 -6 6 -10 14 -10 8 0 17 -4 21 -9 3 -6 -6 -7 -22 -2 -33 10 -78 -1 -50
-12 9 -3 17 -14 16 -24 0 -14 -2 -15 -6 -3 -9 23 -25 30 -44 19 -12 -6 -19 -4
-23 6 -3 8 -1 17 5 20 5 4 7 10 5 14 -3 4 1 8 9 8 19 0 19 -2 -1 -21 -9 -10
-11 -16 -4 -16 14 0 40 25 40 39 0 6 5 11 11 11 5 0 7 -5 3 -12z m174 -13 c-3
-3 -9 2 -12 12 -6 14 -5 15 5 6 7 -7 10 -15 7 -18z m-598 5 c-8 -5 -19 -10
-25 -10 -5 0 -3 5 5 10 8 5 20 10 25 10 6 0 3 -5 -5 -10z m105 0 c8 -13 -5
-13 -25 0 -13 8 -13 10 2 10 9 0 20 -4 23 -10z m49 2 c3 -5 -1 -9 -9 -9 -8 0
-12 4 -9 9 3 4 7 8 9 8 2 0 6 -4 9 -8z m-319 -12 c-3 -5 -3 -10 2 -10 4 0 9
-11 9 -24 1 -17 -3 -23 -11 -19 -8 2 -12 16 -10 31 5 34 4 32 11 32 3 0 2 -4
-1 -10z m795 -2 c0 6 5 12 11 12 8 0 8 -5 -1 -15 -13 -16 -30 -11 -30 8 0 7 4
6 10 -3 6 -10 10 -11 10 -2z m-740 -9 c0 -5 4 -7 10 -4 6 3 7 -1 4 -10 -6 -14
-8 -14 -20 2 -17 23 -19 1 -3 -30 7 -12 8 -19 4 -15 -5 4 -15 2 -23 -5 -13
-10 -14 -9 -4 9 6 12 9 24 5 27 -8 9 4 37 17 37 5 0 10 -5 10 -11z m-75 -9 c3
-5 1 -10 -4 -10 -6 0 -11 5 -11 10 0 6 2 10 4 10 3 0 8 -4 11 -10z m278 -5 c4
-8 1 -17 -6 -21 -7 -4 -9 -4 -5 1 4 4 3 14 -3 22 -7 8 -8 13 -1 13 5 0 12 -7
15 -15z m180 -26 c-3 -10 -8 -19 -10 -19 -3 0 -3 9 0 20 6 22 -8 28 -16 8 -4
-8 -6 -7 -6 4 -1 19 21 30 30 15 4 -5 4 -18 2 -28z m63 29 c5 -7 3 -8 -6 -3
-8 5 -11 3 -8 -6 3 -8 11 -13 17 -11 6 1 10 -1 10 -5 -3 -21 2 -32 15 -27 8 3
17 1 20 -5 4 -6 -5 -8 -23 -6 -20 3 -29 0 -27 -8 1 -7 1 -8 -2 -4 -2 5 -13 1
-23 -9 -17 -16 -19 -16 -19 -1 0 10 5 16 12 15 6 -2 12 11 13 32 3 55 7 62 21
38z m119 -6 c-3 -3 -11 0 -18 7 -9 10 -8 11 6 5 10 -3 15 -9 12 -12z m69 -4
c-3 -12 -1 -17 6 -16 7 2 14 -3 16 -10 1 -7 0 -8 -3 -2 -2 5 -9 8 -14 4 -5 -3
-19 -7 -30 -9 -21 -4 -21 -3 -4 15 9 10 14 23 11 28 -3 5 1 9 10 9 9 0 12 -7
8 -19z m-731 -25 c-10 -8 -12 -13 -4 -13 9 0 7 -5 -4 -16 -9 -9 -25 -14 -35
-11 -21 5 -29 -17 -10 -28 6 -3 10 -1 10 5 0 7 6 8 18 1 13 -7 23 -6 30 1 9 9
12 9 12 0 0 -13 -2 -14 -43 -16 -16 -1 -30 1 -33 6 -3 4 -12 4 -21 1 -12 -5
-15 -2 -11 9 4 9 1 22 -5 29 -10 11 -9 11 5 0 15 -11 19 -11 24 3 5 12 10 13
24 6 25 -13 36 5 13 20 -17 11 -17 11 0 6 11 -3 17 0 17 10 0 9 -5 12 -12 8
-7 -4 -8 -3 -4 4 5 9 12 8 27 -1 18 -11 18 -13 2 -24z m213 22 c9 -8 11 -15 6
-15 -5 0 -15 7 -22 15 -7 8 -9 15 -6 15 4 0 14 -7 22 -15z m-36 -20 c-7 -8 -8
-20 -4 -27 5 -10 4 -10 -6 -1 -10 9 -10 15 -2 26 7 8 8 18 4 22 -4 5 -1 5 6 1
10 -6 10 -11 2 -21z m508 5 c-14 -22 -24 -19 -15 5 4 8 11 15 17 15 6 0 6 -7
-2 -20z m252 5 c0 -8 -4 -15 -8 -15 -5 0 -9 7 -9 15 0 8 4 15 9 15 4 0 8 -7 8
-15z m-662 -40 c0 -14 -5 -28 -11 -32 -6 -3 -7 -1 -3 5 5 8 0 12 -12 12 -12 0
-22 9 -25 21 -5 20 -5 20 13 4 10 -9 21 -12 24 -7 3 6 -1 13 -10 16 -8 3 -12
11 -9 16 11 17 33 -7 33 -35z m-351 20 c0 -8 -4 -12 -9 -9 -5 3 -6 10 -3 15 9
13 12 11 12 -6z m223 5 c0 -5 -2 -10 -4 -10 -3 0 -8 5 -11 10 -3 6 -1 10 4 10
6 0 11 -4 11 -10z m207 3 c-4 -3 0 -14 9 -24 15 -16 14 -17 -4 -12 -12 3 -19
12 -17 21 5 23 4 22 12 22 3 0 3 -3 0 -7z m-230 -33 c-1 -11 -8 -20 -15 -20
-11 0 -12 3 -3 13 6 8 8 17 4 20 -3 4 -1 7 5 7 6 0 10 -9 9 -20z m200 -14 c-3
-8 -16 -20 -29 -26 -23 -11 -23 -11 1 8 17 14 22 25 17 38 -6 15 -4 16 5 7 6
-6 9 -18 6 -27z m316 11 c-4 -7 0 -6 10 2 15 12 17 11 17 -4 0 -22 -32 -16
-36 8 -1 9 2 15 7 11 5 -3 6 -11 2 -17z m133 -9 c4 -6 3 -8 -3 -5 -6 4 -13 0
-17 -8 -3 -8 -14 -15 -25 -15 -25 0 -33 -49 -11 -68 13 -12 13 -13 -2 -8 -10
3 -18 1 -18 -5 0 -6 -7 -6 -20 1 -11 6 -21 8 -21 5 -1 -3 -2 -9 -3 -14 -3 -21
-13 -20 -11 1 1 13 3 30 4 38 1 12 4 12 12 -2 11 -20 29 -24 29 -7 0 5 -4 8
-8 5 -4 -2 -8 4 -8 14 0 14 4 16 13 9 9 -8 11 -5 10 9 0 12 -6 18 -14 15 -15
-6 -18 13 -3 22 6 4 8 10 5 15 -3 4 4 10 15 13 11 3 19 2 18 -2 -2 -20 4 -30
17 -25 8 4 15 10 15 16 0 5 -4 7 -8 4 -5 -3 -9 1 -9 9 0 16 30 4 43 -17z
m-616 1 c0 -6 -4 -7 -10 -4 -5 3 -10 11 -10 16 0 6 5 7 10 4 6 -3 10 -11 10
-16z m-105 0 c11 -16 2 -17 -30 -3 l-30 13 27 1 c15 0 30 -5 33 -11z m430 -15
c9 -15 12 -23 6 -20 -11 7 -35 46 -28 46 3 0 12 -12 22 -26z m-264 9 c0 -5 2
-16 4 -25 2 -10 -1 -18 -6 -18 -6 0 -9 7 -7 16 2 10 -3 19 -9 21 -7 3 -13 0
-13 -7 0 -6 -5 -8 -10 -5 -6 4 -8 11 -5 16 7 11 45 12 46 2z m410 -31 c-6 -2
-8 -8 -5 -13 3 -6 12 -5 22 3 9 8 7 -1 -7 -19 -12 -18 -26 -33 -31 -33 -5 0
-7 -7 -4 -15 4 -8 1 -15 -6 -15 -8 0 -10 -9 -6 -24 12 -49 -25 -76 -54 -41 -9
10 -9 15 -1 15 6 0 11 -4 11 -10 0 -19 18 -10 23 11 7 26 -2 51 -15 43 -5 -3
-4 -11 3 -20 9 -11 8 -14 -4 -14 -17 0 -17 14 1 46 6 12 8 25 4 29 -4 5 -2 5
5 1 7 -4 10 -13 6 -21 -4 -11 -1 -13 11 -9 9 3 13 10 10 15 -3 5 2 12 10 15
19 7 21 44 4 45 -10 0 -10 2 0 6 6 2 12 9 12 15 0 6 -7 8 -14 5 -10 -4 -13 -1
-9 9 5 13 8 12 25 -3 11 -10 15 -19 9 -21z m259 23 c0 -8 -2 -15 -4 -15 -2 0
-6 7 -10 15 -3 8 -1 15 4 15 6 0 10 -7 10 -15z m-518 -2 c-6 -2 -10 -9 -7 -13
3 -5 1 -11 -4 -14 -7 -5 -8 11 -2 32 1 1 7 2 14 1 9 0 9 -2 -1 -6z m-328 -18
c3 -8 2 -14 -2 -13 -4 1 -16 -3 -26 -7 -18 -8 -18 -9 -2 -15 10 -3 -7 -6 -38
-7 -51 -1 -56 0 -56 20 1 20 2 21 14 5 7 -10 19 -18 27 -18 11 0 11 2 -1 10
-11 8 -8 9 13 6 19 -3 34 1 45 14 9 10 18 19 18 19 1 1 4 -6 8 -14z m110 4 c3
-3 -4 -5 -14 -6 -11 -1 -22 2 -25 8 -6 9 30 7 39 -2z m386 -19 c-7 -4 -9 -13
-6 -19 4 -6 2 -11 -3 -11 -15 0 -14 16 1 40 7 11 15 15 17 9 2 -6 -2 -15 -9
-19z m-955 2 c-3 -3 -11 0 -18 7 -9 10 -8 11 6 5 10 -3 15 -9 12 -12z m515 14
c0 -3 -4 -8 -10 -11 -5 -3 -10 -1 -10 4 0 6 5 11 10 11 6 0 10 -2 10 -4z m240
-11 c0 -8 -2 -15 -4 -15 -2 0 -6 7 -10 15 -3 8 -1 15 4 15 6 0 10 -7 10 -15z
m120 -25 c-10 -18 -9 -21 7 -18 10 2 17 -2 16 -8 -1 -6 9 -11 22 -11 14 0 22
4 18 10 -3 6 -1 7 5 3 18 -11 14 -26 -5 -27 -11 0 -13 -3 -5 -6 6 -2 12 -9 12
-14 0 -6 -15 1 -32 15 -18 13 -37 26 -43 28 -5 2 -9 10 -7 18 2 8 4 23 5 32 1
10 5 14 10 9 5 -5 4 -18 -3 -31z m125 30 c3 -5 -1 -10 -9 -10 -9 0 -16 5 -16
10 0 6 4 10 9 10 6 0 13 -4 16 -10z m-390 -10 c-3 -5 -8 -19 -10 -31 -3 -15 0
-19 10 -15 9 3 12 0 8 -9 -3 -8 -10 -12 -15 -9 -14 9 1 -37 18 -55 7 -8 17
-12 21 -8 3 4 -2 14 -13 23 -19 15 -19 15 1 6 11 -5 26 -8 33 -6 7 1 8 0 2 -3
-18 -9 -11 -21 10 -16 22 6 26 -7 8 -25 -15 -15 -29 -15 -25 0 1 6 -9 12 -22
12 -23 1 -34 12 -45 49 -3 10 -10 15 -16 12 -7 -4 -6 -13 1 -26 6 -12 8 -23 6
-26 -3 -2 -8 5 -12 16 -3 12 -12 19 -18 15 -7 -3 0 6 16 20 34 32 33 27 18 55
-7 13 -8 21 -3 17 6 -3 13 -2 17 4 3 5 8 10 11 10 3 0 2 -4 -1 -10z m738 -10
c3 -11 2 -22 -2 -24 -4 -3 -8 6 -9 20 -2 29 4 31 11 4z m-614 2 c-4 -28 2 -32
26 -16 23 15 25 15 25 0 0 -10 -5 -13 -17 -9 -12 5 -14 3 -8 -7 5 -8 4 -11 -3
-6 -5 3 -13 0 -15 -6 -4 -8 -8 -5 -12 9 -12 37 -42 38 -36 1 0 -4 -6 -5 -14
-2 -10 4 -13 0 -10 -18 4 -21 3 -21 -9 -6 -7 10 -16 15 -19 11 -4 -3 -2 -12 4
-20 7 -8 8 -13 1 -13 -14 0 -23 28 -11 36 5 3 7 15 3 27 -6 22 -6 22 11 2 14
-17 16 -18 11 -2 -3 10 -2 16 2 13 4 -2 13 -1 20 3 15 9 52 12 51 3z m121 -2
c0 -5 -8 -10 -17 -10 -15 0 -16 2 -3 10 19 12 20 12 20 0z m313 -43 c-3 -5
-12 1 -19 14 -20 36 -17 45 6 19 11 -12 17 -27 13 -33z m32 15 c-2 -14 -10
-29 -17 -34 -10 -6 -8 -8 5 -8 9 0 17 -4 17 -9 0 -5 -9 -7 -20 -4 -24 6 -25
16 -6 32 15 12 16 28 3 48 -6 9 -3 11 7 7 11 -4 14 -15 11 -32z m100 18 c-10
-11 -15 -23 -12 -27 4 -4 14 2 22 13 13 18 14 18 8 -3 -3 -13 -11 -23 -19 -23
-7 0 -12 -6 -10 -12 1 -7 1 -10 -1 -5 -3 4 -10 4 -15 0 -7 -4 -9 2 -5 16 5 19
2 22 -14 18 -30 -8 -22 3 11 14 17 6 30 15 30 20 0 5 5 9 12 9 6 0 3 -9 -7
-20z m-285 0 c0 -5 -2 -10 -4 -10 -3 0 -8 5 -11 10 -3 6 -1 10 4 10 6 0 11 -4
11 -10z m-535 -18 c-3 -3 -11 0 -18 7 -9 10 -8 11 6 5 10 -3 15 -9 12 -12z
m85 0 c0 -5 -7 -9 -15 -9 -8 0 -12 4 -9 9 3 4 9 8 15 8 5 0 9 -4 9 -8z m671
-32 c5 0 9 -4 9 -8 0 -5 -6 -9 -13 -9 -8 0 -13 13 -14 31 0 21 1 24 4 9 2 -13
9 -23 14 -23z m-781 23 c0 -10 -20 -40 -20 -31 0 3 -3 13 -6 22 -4 11 -1 16
10 16 9 0 16 -3 16 -7z m-50 -24 c-13 -24 -4 -41 10 -19 8 12 10 11 10 -6 0
-14 -6 -21 -16 -20 -9 0 -19 -5 -21 -11 -3 -8 5 -14 19 -14 40 -2 116 -16 128
-24 3 -2 55 -6 115 -10 61 -4 116 -8 123 -10 6 -3 12 2 12 10 0 7 5 17 10 20
6 4 9 1 8 -7 -2 -8 4 -12 15 -10 9 2 17 -2 17 -8 0 -20 16 -10 17 12 1 12 10
28 19 37 14 13 16 13 8 1 -20 -29 -24 -50 -9 -50 9 0 12 6 9 15 -4 8 -1 15 5
15 6 0 11 -9 11 -21 0 -11 3 -18 8 -16 4 3 52 8 107 11 82 6 103 11 117 27 9
11 15 28 13 39 -4 21 9 27 20 10 3 -5 2 -10 -4 -10 -5 0 -8 -8 -7 -17 2 -10
-2 -22 -8 -26 -6 -5 14 -6 44 -3 l55 5 -60 -14 c-86 -19 -239 -35 -347 -35
-165 0 -432 39 -454 67 -10 11 -13 11 -17 1 -3 -9 -8 -10 -16 -2 -9 8 -6 15 9
29 15 14 20 15 20 4 1 -8 7 1 15 19 8 17 17 32 20 32 3 0 1 -9 -5 -21z m79
-15 c-5 -6 -5 -15 -1 -19 4 -5 -1 -5 -10 -2 -12 4 -15 2 -11 -9 3 -8 -1 -14
-9 -14 -7 0 -14 9 -14 20 0 10 2 17 5 15 10 -10 29 18 24 33 -6 14 -5 15 9 2
10 -9 13 -19 7 -26z m37 20 c18 -14 18 -14 -6 -3 -31 14 -36 19 -24 19 6 0 19
-7 30 -16z m194 6 c0 -5 -5 -10 -11 -10 -5 0 -7 5 -4 10 3 6 8 10 11 10 2 0 4
-4 4 -10z m66 1 c-3 -4 1 -16 8 -26 15 -21 73 -28 80 -9 3 8 -4 12 -22 9 -27
-3 -52 10 -52 26 0 15 28 10 34 -7 3 -8 10 -12 16 -9 6 3 19 4 30 0 18 -6 18
-7 3 -25 -9 -10 -20 -17 -24 -15 -4 3 -10 -6 -13 -20 -4 -14 -12 -25 -18 -25
-9 0 -9 3 0 12 15 15 16 38 1 38 -5 0 -7 -6 -3 -12 6 -10 4 -10 -8 0 -11 9
-18 10 -23 2 -3 -5 0 -10 7 -11 7 0 3 -4 -9 -9 -13 -5 -23 -14 -23 -20 0 -6
-4 -8 -10 -5 -14 9 -12 25 3 23 7 -2 12 7 11 20 0 12 3 22 7 22 5 0 6 7 3 15
-10 26 -24 16 -20 -14 2 -21 0 -28 -10 -24 -8 3 -15 0 -15 -6 -1 -6 -2 -17 -3
-23 0 -7 -11 -14 -23 -14 -12 -1 -20 2 -17 7 2 4 10 6 18 3 7 -3 13 2 13 11 0
8 -4 15 -8 15 -4 0 -10 7 -13 16 -3 8 -2 12 4 9 6 -3 11 2 11 12 1 17 2 17 6
1 2 -10 9 -18 14 -18 6 0 9 8 7 18 -2 9 5 22 17 29 24 15 28 16 21 4z m-406
-11 c0 -5 -7 -7 -15 -4 -8 4 -15 8 -15 10 0 2 7 4 15 4 8 0 15 -4 15 -10z
m954 -8 c3 -5 -1 -9 -9 -9 -8 0 -12 4 -9 9 3 4 7 8 9 8 2 0 6 -4 9 -8z m-974
-12 c0 -5 -5 -10 -11 -10 -5 0 -7 5 -4 10 3 6 8 10 11 10 2 0 4 -4 4 -10z
m157 3 c-4 -3 1 -12 11 -20 9 -8 11 -12 5 -8 -7 3 -13 1 -13 -5 0 -6 -4 -9 -9
-6 -5 4 -8 14 -6 24 5 23 4 22 12 22 3 0 3 -3 0 -7z m-257 -13 c8 -5 11 -10 5
-10 -5 0 -17 5 -25 10 -8 5 -10 10 -5 10 6 0 17 -5 25 -10z m793 -8 c-2 -8 4
-9 22 -2 18 7 25 6 25 -3 0 -9 3 -8 9 1 7 11 9 11 14 -1 4 -12 0 -14 -19 -11
-19 4 -24 0 -25 -18 -1 -17 -2 -19 -6 -5 -2 9 -9 15 -14 11 -5 -3 -7 -10 -4
-15 4 -5 -1 -9 -9 -9 -8 0 -18 5 -22 12 -4 6 -3 8 4 4 17 -10 23 10 7 24 -20
17 -19 32 3 28 9 -2 16 -9 15 -16z m150 -11 c-4 -3 -11 -10 -15 -15 -4 -4 -6
1 -5 12 1 12 6 18 15 15 7 -3 10 -9 5 -12z m81 4 c-7 -17 -3 -18 20 -9 9 3 14
10 11 14 -3 5 6 3 20 -3 l25 -12 -37 -12 c-46 -14 -84 -17 -65 -4 8 4 13 11
13 15 -3 18 0 26 9 26 5 0 7 -7 4 -15z m-960 -4 c4 -5 -3 -7 -14 -4 -23 6 -26
13 -6 13 8 0 17 -4 20 -9z m617 -5 c-9 -11 -8 -18 4 -30 9 -9 13 -16 8 -16
-29 1 -46 60 -17 60 13 0 14 -3 5 -14z m-346 -26 c3 -5 1 -10 -4 -10 -6 0 -11
5 -11 10 0 6 2 10 4 10 3 0 8 -4 11 -10z"/>
<path d="M5091 7696 c-76 -42 -199 -252 -227 -386 -34 -164 24 -353 155 -502
l41 -46 0 -206 c0 -113 -4 -206 -8 -206 -4 0 -15 12 -24 28 -9 15 -52 65 -95
112 -72 78 -80 91 -101 165 -40 140 -96 241 -176 320 -123 122 -270 177 -465
177 -127 1 -132 -4 -119 -89 49 -326 286 -542 594 -543 l60 0 91 -85 c164
-153 222 -268 232 -454 l6 -113 65 0 65 0 6 113 c4 83 12 130 28 172 36 91
114 199 209 287 l86 80 61 0 c198 1 393 104 496 263 65 100 126 324 96 354
-22 22 -203 18 -300 -6 -230 -59 -370 -203 -453 -466 -25 -79 -36 -99 -91
-159 -35 -39 -80 -94 -100 -122 -21 -29 -41 -53 -45 -54 -4 0 -7 94 -8 210
l-1 209 51 63 c58 72 133 219 150 297 20 84 8 233 -23 309 -49 119 -180 293
-220 292 -7 -1 -23 -7 -36 -14z m-736 -571 c167 -35 318 -148 394 -295 46 -89
85 -205 77 -226 -3 -8 -2 -12 4 -9 6 3 10 2 10 -4 0 -5 3 -17 6 -25 4 -12 -4
-20 -30 -31 -30 -13 -54 -14 -144 -5 -205 19 -301 58 -407 164 -73 73 -142
185 -131 212 3 8 2 13 -3 10 -11 -7 -17 7 -36 90 -18 79 -19 121 -2 127 26 11
196 6 262 -8z m1803 7 c22 -15 -21 -199 -70 -297 -54 -107 -154 -201 -266
-251 -129 -57 -365 -75 -418 -32 -16 12 60 236 106 312 104 173 302 274 535
275 55 1 106 -3 113 -7z"/>
<path d="M4073 6382 c-67 -24 -118 -64 -154 -120 -101 -160 -42 -370 126 -452
68 -33 180 -34 245 -3 67 33 112 75 145 134 27 49 30 63 30 144 0 104 -20 157
-84 222 -77 80 -206 111 -308 75z"/>
<path d="M5040 5725 c-210 -67 -231 -372 -32 -463 107 -49 219 -27 296 59 111
123 76 313 -73 388 -51 27 -136 34 -191 16z m139 -17 c-4 -31 2 -47 21 -53 11
-4 18 -11 14 -16 -4 -6 -10 -6 -18 0 -7 6 -15 9 -17 6 -3 -2 -10 5 -17 15 -7
11 -8 20 -4 20 5 0 9 6 9 13 0 8 -6 14 -13 14 -7 0 -12 -5 -11 -11 1 -6 -4
-10 -10 -8 -21 4 -15 -16 7 -23 11 -4 18 -11 15 -16 -4 -5 -2 -9 2 -9 5 0 18
-7 29 -16 10 -8 14 -13 8 -10 -6 3 -11 -1 -11 -9 0 -19 37 0 38 20 2 24 4 29
12 42 4 6 2 15 -4 19 -7 4 -9 3 -5 -4 3 -6 2 -13 -4 -17 -5 -3 -10 -1 -10 5 0
6 -4 9 -8 6 -4 -2 -8 4 -8 15 0 10 2 19 4 19 12 0 62 -32 62 -41 0 -6 4 -7 10
-4 5 3 23 -13 39 -35 37 -51 55 -132 43 -187 -9 -41 -31 -87 -32 -66 0 6 -3
19 -7 29 -4 12 -3 15 5 10 8 -5 10 -2 6 9 -6 15 -8 15 -23 0 -11 -12 -12 -19
-5 -22 7 -2 10 -13 7 -24 -3 -11 -11 -18 -18 -15 -8 3 -12 -2 -10 -12 2 -9 4
-21 4 -25 1 -5 6 -5 12 -1 8 5 8 9 -1 14 -8 5 -7 9 6 14 55 21 -3 -46 -68 -78
-38 -19 -68 -26 -110 -26 -32 0 -58 4 -58 10 0 5 -6 7 -12 5 -40 -15 -148 92
-151 149 -1 14 -6 26 -11 26 -15 0 1 115 23 157 26 53 89 105 114 97 12 -4 17
-2 13 4 -9 15 11 20 82 21 45 1 62 -3 61 -11z"/>
<path d="M5050 5700 c0 -5 5 -10 11 -10 6 0 9 -6 6 -14 -3 -8 1 -17 9 -20 11
-4 12 -10 4 -25 -13 -25 -13 -34 0 -26 6 3 10 -1 10 -9 0 -22 -31 -36 -53 -24
-10 5 -25 7 -33 4 -9 -3 -12 -1 -9 4 3 6 1 10 -4 10 -6 0 -11 -5 -11 -11 0 -5
-5 -7 -10 -4 -8 5 -8 11 -1 19 6 7 8 22 4 34 -4 16 -1 22 10 22 9 0 21 9 27
20 17 31 -5 24 -35 -12 -16 -19 -23 -34 -16 -36 6 -2 11 -8 11 -14 0 -6 -7 -8
-15 -4 -14 5 -13 2 0 -24 9 -17 13 -30 9 -30 -3 0 1 -11 10 -24 15 -23 14 -25
-4 -31 -11 -4 -18 -11 -15 -16 4 -5 1 -9 -4 -9 -6 0 -11 5 -11 11 0 6 -6 4
-14 -4 -15 -15 -11 -57 6 -57 5 0 6 -5 3 -10 -4 -6 -11 -8 -16 -5 -5 4 -9 -1
-9 -9 0 -10 6 -13 15 -10 9 4 15 1 15 -7 0 -10 3 -10 12 -1 15 15 28 16 28 2
0 -5 -7 -10 -16 -10 -19 0 -14 -22 7 -28 8 -3 11 -1 7 3 -4 4 -1 14 7 21 8 8
11 22 8 31 -4 11 -3 14 5 9 7 -4 12 -2 12 3 0 6 5 11 12 11 9 0 9 -3 0 -12 -7
-7 -12 -19 -11 -27 0 -11 2 -12 6 -4 3 10 10 10 26 2 20 -9 20 -9 5 4 -22 17
-23 24 -3 24 8 0 16 -6 16 -14 1 -7 2 -18 3 -25 0 -6 7 -13 15 -16 8 -3 11 0
7 6 -3 6 -2 13 4 17 6 4 8 11 4 16 -3 5 -10 6 -16 3 -7 -4 -8 -2 -4 4 6 11 -6
16 -26 13 -5 0 -8 4 -8 9 0 15 -36 12 -50 -5 -16 -19 -37 -19 -37 -1 0 8 5 12
11 10 14 -5 63 33 54 42 -4 4 -19 -1 -33 -10 -19 -13 -30 -14 -39 -7 -7 6 -17
7 -21 3 -5 -4 -5 -1 -1 6 5 8 13 9 26 2 14 -8 21 -4 35 16 16 24 17 25 30 7
14 -17 14 -17 11 3 -3 12 3 25 15 32 20 13 26 3 9 -14 -8 -8 -6 -15 4 -23 10
-8 16 -9 21 -1 3 5 0 10 -7 10 -7 1 -2 7 11 14 l23 13 -23 8 c-13 4 -27 7 -31
6 -3 0 -9 7 -12 15 -4 11 -1 14 13 9 11 -3 22 -1 26 5 3 6 11 8 16 5 8 -6 13
8 10 27 0 4 7 5 17 2 9 -2 7 1 -5 7 -13 7 -23 16 -23 21 0 11 17 10 25 -2 3
-5 11 -10 17 -10 7 0 7 5 -1 14 -9 11 -9 15 1 20 7 3 2 3 -10 0 -21 -5 -23 -3
-18 18 3 12 3 17 0 11 -3 -7 -10 -13 -15 -13 -6 0 -5 9 2 21 7 13 7 19 1 15
-6 -3 -13 -2 -17 4 -8 13 -25 13 -25 0z m-25 -155 c-3 -32 -10 -39 -30 -32
-17 7 -21 27 -4 27 5 0 7 -4 4 -10 -4 -6 1 -7 11 -3 14 5 13 8 -7 20 -13 8
-16 12 -6 9 9 -3 17 -1 17 4 0 6 4 10 9 10 5 0 8 -11 6 -25z"/>
<path d="M5010 5645 c-14 -16 -10 -18 14 -9 9 3 16 10 16 15 0 14 -16 11 -30
-6z"/>
<path d="M5056 5636 c3 -8 1 -17 -5 -21 -6 -3 -11 -1 -11 4 0 6 -5 11 -12 11
-9 0 -9 -3 -1 -11 6 -6 9 -18 6 -25 -4 -10 2 -13 20 -12 18 2 23 6 17 13 -5 6
-7 21 -3 33 3 13 1 22 -6 22 -5 0 -8 -6 -5 -14z"/>
<path d="M5225 5616 c-11 -17 -30 -32 -43 -34 -12 -2 -22 -8 -22 -13 0 -6 -8
-6 -20 1 -16 8 -18 8 -14 -4 3 -9 11 -14 17 -13 6 1 12 -11 13 -27 3 -29 3
-29 -12 -7 -9 12 -20 19 -25 16 -5 -4 -9 -1 -9 4 0 6 -7 11 -15 11 -10 0 -3
-11 19 -30 19 -17 40 -29 48 -28 8 2 14 -8 16 -25 2 -15 7 -25 12 -22 6 3 5
16 0 30 -7 18 -5 28 6 40 9 8 12 15 8 15 -4 0 0 6 11 13 12 10 14 16 7 21 -14
8 -16 26 -3 26 8 0 22 -32 25 -55 1 -5 10 -17 20 -26 14 -11 16 -18 8 -23 -7
-4 -12 -1 -12 9 0 9 -4 14 -9 11 -5 -4 -12 0 -14 6 -3 7 -6 1 -6 -14 -1 -20 3
-26 14 -22 10 4 15 0 16 -12 0 -11 3 -14 6 -6 2 6 9 10 14 7 5 -4 6 2 2 12 -6
15 -4 16 9 5 11 -9 18 -10 23 -2 3 6 12 8 18 4 7 -3 3 2 -8 10 -11 9 -25 14
-32 12 -7 -3 -13 2 -13 10 0 8 -5 12 -10 9 -6 -4 -9 12 -7 44 3 30 0 51 -6 51
-6 0 -7 3 -4 6 9 9 38 -16 32 -26 -3 -5 2 -7 10 -6 16 2 21 21 6 21 -5 0 -13
3 -17 8 -4 4 -2 7 5 7 7 0 9 4 6 10 -12 19 -51 6 -70 -24z m25 -22 c0 -8 -4
-12 -10 -9 -5 3 -10 10 -10 16 0 5 5 9 10 9 6 0 10 -7 10 -16z m-40 -34 c0 -5
-4 -10 -10 -10 -5 0 -10 5 -10 10 0 6 5 10 10 10 6 0 10 -4 10 -10z m-20 -27
c0 -5 -5 -15 -10 -23 -7 -12 -9 -10 -7 8 1 19 17 33 17 15z m120 -43 c0 -5 -2
-10 -4 -10 -3 0 -8 5 -11 10 -3 6 -1 10 4 10 6 0 11 -4 11 -10z"/>
<path d="M5145 5609 c-4 -11 -4 -23 -1 -26 3 -4 6 -1 6 6 0 7 5 9 10 6 6 -3
10 1 10 9 0 24 -18 28 -25 5z"/>
<path d="M4992 5608 c2 -6 10 -14 16 -16 7 -2 10 2 6 12 -7 18 -28 22 -22 4z"/>
<path d="M4912 5577 c-6 -17 -9 -33 -7 -36 3 -2 5 1 5 7 0 7 5 12 11 12 5 0 7
-4 4 -10 -3 -5 -2 -10 3 -10 15 0 20 35 8 53 -11 13 -14 11 -24 -16z"/>
<path d="M5214 5522 c-6 -9 -11 -33 -10 -52 1 -24 -4 -39 -17 -48 -14 -11 -16
-17 -6 -28 10 -12 10 -15 -1 -12 -8 2 -14 -4 -15 -12 0 -8 -9 -16 -20 -19 -20
-3 -20 -3 -1 18 11 12 21 27 22 34 1 7 3 18 5 26 2 7 -2 16 -10 19 -8 2 -11 0
-7 -6 9 -15 -16 -21 -55 -13 -22 4 -29 10 -21 14 6 5 18 5 25 1 8 -5 7 -2 -2
9 -12 15 -12 17 4 11 13 -5 16 -4 11 4 -4 7 -1 12 10 12 14 0 14 -3 4 -15 -11
-13 -11 -18 0 -28 10 -10 12 -9 7 5 -4 11 1 18 16 23 22 6 22 6 -3 16 -13 6
-27 15 -31 21 -7 11 -42 -2 -40 -15 1 -4 1 -14 1 -24 0 -15 -2 -15 -19 1 -19
17 -20 17 -31 -4 -11 -20 -10 -21 10 -15 15 5 20 4 16 -4 -4 -6 -3 -11 2 -11
5 0 19 -9 32 -20 20 -17 21 -22 9 -36 -13 -16 -12 -16 9 -5 12 7 20 16 17 21
-3 5 -1 11 4 14 22 14 20 -16 -3 -37 l-24 -23 30 -2 c33 -3 89 40 68 53 -13 8
-13 25 1 25 5 0 7 -4 4 -10 -3 -5 -2 -10 4 -10 10 0 11 13 11 79 0 18 5 40 11
47 6 8 7 14 3 14 -5 0 -14 -8 -20 -18z m-94 -112 c0 -5 -2 -10 -4 -10 -3 0 -8
5 -11 10 -3 6 -1 10 4 10 6 0 11 -4 11 -10z"/>
<path d="M5304 5528 c-4 -6 -3 -8 4 -4 5 3 12 1 14 -6 3 -8 6 -9 11 -1 4 6 0
13 -8 17 -8 3 -17 0 -21 -6z"/>
<path d="M4915 5520 c3 -5 -2 -10 -12 -11 -12 0 -14 -2 -4 -6 11 -5 11 -7 0
-14 -9 -6 -10 -9 -2 -9 6 0 15 5 18 10 3 6 18 10 32 10 21 0 24 2 13 15 -14
16 -55 21 -45 5z"/>
<path d="M5320 5463 c0 -4 5 -15 10 -23 8 -13 10 -13 10 2 0 9 -4 20 -10 23
-5 3 -10 3 -10 -2z"/>
<path d="M5235 5448 c-9 -23 -3 -39 11 -30 7 4 8 15 4 27 -7 18 -9 18 -15 3z"/>
<path d="M5263 5427 c-12 -12 -31 -31 -43 -42 -11 -10 -18 -25 -16 -32 3 -7 1
-13 -5 -13 -6 0 -26 -7 -45 -16 -19 -9 -38 -14 -41 -10 -3 3 -1 6 6 6 7 0 9 5
6 10 -4 6 -11 8 -16 4 -5 -3 -24 3 -42 14 -18 10 -41 16 -50 13 -19 -7 -52
-61 -37 -61 4 0 15 -3 24 -6 11 -4 16 0 16 12 0 16 -2 17 -10 4 -5 -8 -10 -10
-10 -5 0 6 4 16 9 23 7 11 10 10 15 -3 3 -9 6 -26 6 -37 0 -11 5 -18 13 -15 6
2 11 10 9 17 -2 8 3 10 13 6 9 -3 19 -6 22 -6 3 0 0 -6 -6 -13 -9 -12 -1 -14
47 -12 73 2 113 22 101 50 -7 18 -8 18 -8 -4 -1 -24 -1 -24 -15 -5 -13 17 -13
20 5 28 21 10 26 26 7 26 -6 0 -8 3 -5 6 9 9 38 -16 31 -27 -3 -5 0 -9 5 -9 6
0 11 -5 11 -11 0 -5 -5 -7 -12 -3 -7 5 -8 3 -3 -5 4 -8 11 -9 17 -3 10 10 -7
63 -23 73 -7 4 -4 9 5 12 9 4 16 2 16 -3 0 -6 7 -10 15 -10 8 0 15 5 15 10 0
6 -3 9 -7 9 -22 -4 -23 3 -2 19 12 11 18 21 13 25 -5 3 -19 -4 -31 -16z m-206
-102 c0 -8 -4 -12 -9 -9 -5 3 -6 10 -3 15 9 13 12 11 12 -6z m31 -20 c-3 -3
-9 2 -12 12 -6 14 -5 15 5 6 7 -7 10 -15 7 -18z m80 -2 c-7 -9 -8 -13 -1 -11
6 2 11 0 12 -4 1 -5 -1 -8 -4 -8 -3 0 -17 0 -31 0 -14 0 -23 4 -19 10 4 6 11
8 16 5 5 -4 9 0 9 8 0 7 7 14 15 14 11 0 12 -3 3 -14z m-61 -25 c-3 -8 -6 -5
-6 6 -1 11 2 17 5 13 3 -3 4 -12 1 -19z"/>
<path d="M4936 5345 c9 -14 21 -25 27 -25 6 0 0 11 -13 25 -13 14 -25 25 -27
25 -2 0 4 -11 13 -25z"/>
<path d="M5087 5005 c-27 -27 -52 -43 -59 -39 -7 4 -8 3 -4 -4 10 -17 31 -15
49 6 12 13 29 18 62 17 47 -2 48 1 13 48 -13 18 -17 16 -61 -28z m63 -5 c-18
-12 -43 -13 -36 -2 2 4 15 8 28 9 18 2 19 0 8 -7z"/>
<path d="M4988 5093 c7 -3 16 -2 19 1 4 3 -2 6 -13 5 -11 0 -14 -3 -6 -6z"/>
<path d="M4965 5010 c3 -5 11 -10 16 -10 6 0 7 5 4 10 -3 6 -11 10 -16 10 -6
0 -7 -4 -4 -10z"/>
<path d="M5131 4904 c0 -11 3 -14 6 -6 3 7 2 16 -1 19 -3 4 -6 -2 -5 -13z"/>
<path d="M5220 4751 c0 -6 4 -12 8 -15 5 -3 9 1 9 9 0 8 -4 15 -9 15 -4 0 -8
-4 -8 -9z"/>
<path d="M5270 4620 c0 -5 5 -10 11 -10 5 0 7 5 4 10 -3 6 -8 10 -11 10 -2 0
-4 -4 -4 -10z"/>
<path d="M4710 4526 c0 -2 7 -7 16 -10 8 -3 12 -2 9 4 -6 10 -25 14 -25 6z"/>
<path d="M5391 4367 c-8 -10 -7 -14 4 -14 8 0 15 6 15 14 0 7 -2 13 -4 13 -2
0 -9 -6 -15 -13z"/>
<path d="M7324 3799 c-35 -10 -82 -53 -95 -87 -15 -39 -10 -105 10 -138 25
-41 77 -64 144 -64 96 0 163 68 154 159 -6 55 -32 90 -87 119 -47 23 -75 26
-126 11z"/>
<path d="M6500 3621 c-89 -27 -97 -42 -95 -170 l1 -71 -68 0 c-95 0 -108 -14
-108 -118 0 -104 6 -111 100 -114 l75 -3 3 -305 c3 -339 9 -378 65 -452 80
-104 271 -144 445 -93 29 9 64 26 78 39 l27 23 -18 74 c-24 102 -29 106 -103
85 -73 -20 -115 -20 -157 0 -61 29 -65 49 -65 358 l0 276 155 0 c181 0 175 -4
175 114 0 114 -3 116 -185 116 l-145 0 0 113 c0 75 -4 117 -12 125 -13 13
-127 15 -168 3z"/>
<path d="M3215 3403 c-93 -12 -178 -56 -238 -122 l-37 -41 0 50 c0 77 -19 90
-128 90 -63 0 -94 -4 -110 -16 l-22 -15 0 -510 c0 -605 -14 -549 135 -549 145
0 135 -25 135 350 0 284 2 314 20 363 35 92 118 155 219 164 106 10 193 -36
232 -122 17 -36 19 -72 19 -362 0 -315 5 -367 33 -385 7 -4 56 -8 110 -8 148
0 137 -32 137 388 0 380 -7 442 -56 533 -78 142 -255 218 -449 192z"/>
<path d="M4390 3400 c-179 -28 -326 -135 -405 -295 -71 -142 -81 -298 -30
-451 62 -186 212 -325 396 -369 81 -19 214 -19 304 0 137 29 305 132 305 187
0 28 -107 138 -134 138 -9 0 -33 -16 -55 -35 -69 -63 -121 -80 -247 -80 -103
0 -114 2 -169 30 -71 36 -126 104 -148 179 -8 28 -12 54 -10 59 2 4 182 7 398
7 l394 0 12 22 c18 33 5 210 -20 282 -55 155 -179 270 -336 312 -67 18 -188
25 -255 14z m210 -221 c25 -11 58 -32 74 -47 34 -32 76 -116 76 -154 l0 -28
-275 0 c-304 0 -289 -4 -261 65 32 76 103 142 183 171 57 20 150 17 203 -7z"/>
<path d="M5540 3399 c-169 -24 -288 -115 -326 -248 -30 -101 -3 -193 78 -267
59 -54 125 -84 298 -134 156 -45 189 -59 220 -92 42 -46 13 -125 -56 -154 -19
-8 -64 -14 -101 -14 -112 0 -209 34 -283 99 -19 17 -44 31 -54 31 -26 0 -146
-121 -146 -147 0 -54 176 -161 312 -189 101 -22 271 -14 353 15 130 47 219
133 249 242 20 70 20 102 0 168 -21 71 -85 140 -164 175 -33 15 -131 47 -217
72 -87 24 -169 53 -183 63 -64 46 -64 108 0 145 28 17 51 21 120 20 98 -1 161
-22 245 -79 63 -44 74 -41 135 36 42 53 56 88 46 114 -9 24 -121 92 -190 115
-59 19 -202 41 -256 39 -14 -1 -50 -5 -80 -10z"/>
<path d="M7273 3365 l-23 -16 0 -514 0 -514 22 -15 c16 -12 47 -16 109 -16 72
0 91 3 113 21 l26 20 0 499 c0 595 12 543 -132 548 -73 3 -98 0 -115 -13z"/>
</g>
</svg>
